<svg width="16" height="17" viewBox="0 0 16 17" fill="none" xmlns="http://www.w3.org/2000/svg">
<path d="M12.0001 1.29991C13.2068 1.99659 14.2105 2.99633 14.912 4.20015C15.6135 5.40397 15.9885 6.77013 15.9997 8.16338C16.011 9.55663 15.6582 10.9287 14.9762 12.1437C14.2942 13.3587 13.3068 14.3745 12.1115 15.0906C10.9163 15.8066 9.55481 16.1982 8.16178 16.2264C6.76875 16.2546 5.39251 15.9184 4.16929 15.2513C2.94608 14.5842 1.91832 13.6091 1.18775 12.4227C0.457175 11.2363 0.049128 9.87968 0.00400014 8.48711L0 8.22791L0.00400014 7.96871C0.0488032 6.5871 0.450844 5.24068 1.17093 4.0607C1.89101 2.88073 2.90456 1.90747 4.11276 1.23582C5.32097 0.564161 6.6826 0.217028 8.0649 0.228261C9.44721 0.239494 10.803 0.608709 12.0001 1.29991ZM8.0001 3.42791C7.80415 3.42794 7.61502 3.49988 7.46859 3.63008C7.32216 3.76029 7.22861 3.93971 7.20569 4.13431L7.20009 4.22791V8.22791L7.20729 8.33271C7.22553 8.47151 7.27987 8.60309 7.36489 8.71431L7.43449 8.79431L9.83452 11.1943L9.90972 11.2599C10.05 11.3688 10.2226 11.4278 10.4001 11.4278C10.5777 11.4278 10.7502 11.3688 10.8905 11.2599L10.9657 11.1935L11.0321 11.1183C11.141 10.978 11.2001 10.8055 11.2001 10.6279C11.2001 10.4503 11.141 10.2778 11.0321 10.1375L10.9657 10.0623L8.80011 7.89591V4.22791L8.79451 4.13431C8.77158 3.93971 8.67803 3.76029 8.5316 3.63008C8.38517 3.49988 8.19605 3.42794 8.0001 3.42791Z" fill="white"/>
</svg>
