<svg width="24" height="25" viewBox="0 0 24 25" fill="none" xmlns="http://www.w3.org/2000/svg">
<path d="M18.0002 2.10787C19.8102 3.1529 21.3158 4.6525 22.3681 6.45823C23.4203 8.26396 23.9827 10.3132 23.9996 12.4031C24.0165 14.493 23.4873 16.551 22.4643 18.3735C21.4413 20.196 19.9601 21.7197 18.1673 22.7939C16.3745 23.868 14.3322 24.4553 12.2427 24.4975C10.1531 24.5398 8.08876 24.0357 6.25394 23.035C4.41913 22.0343 2.87748 20.5717 1.78162 18.7921C0.685763 17.0125 0.0736921 14.9775 0.00600021 12.8887L0 12.4999L0.00600021 12.1111C0.0732047 10.0387 0.676266 8.01902 1.75639 6.24906C2.83651 4.4791 4.35684 3.01921 6.16915 2.01173C7.98145 1.00425 10.0239 0.483547 12.0974 0.500396C14.1708 0.517246 16.2045 1.07107 18.0002 2.10787ZM12.0001 5.29987C11.7062 5.29991 11.4225 5.40782 11.2029 5.60313C10.9832 5.79844 10.8429 6.06757 10.8085 6.35947L10.8001 6.49987V12.4999L10.8109 12.6571C10.8383 12.8653 10.9198 13.0626 11.0473 13.2295L11.1517 13.3495L14.7518 16.9495L14.8646 17.0479C15.075 17.2111 15.3338 17.2998 15.6002 17.2998C15.8666 17.2998 16.1254 17.2111 16.3358 17.0479L16.4486 16.9483L16.5482 16.8355C16.7115 16.625 16.8001 16.3662 16.8001 16.0999C16.8001 15.8335 16.7115 15.5747 16.5482 15.3643L16.4486 15.2515L13.2002 12.0019V6.49987L13.1918 6.35947C13.1574 6.06757 13.017 5.79844 12.7974 5.60313C12.5778 5.40782 12.2941 5.29991 12.0001 5.29987Z" fill="white"/>
</svg>
