<svg width="24" height="25" viewBox="0 0 24 25" fill="none" xmlns="http://www.w3.org/2000/svg">
<path d="M10.2 17H13.8L12 13.4L10.2 17ZM7.8 13.7C8.46 13.7 9.0252 13.4652 9.4956 12.9956C9.966 12.526 10.2008 11.9608 10.2 11.3C10.2 10.64 9.9652 10.0752 9.4956 9.6056C9.026 9.136 8.4608 8.9008 7.8 8.9C7.14 8.9 6.5752 9.1352 6.1056 9.6056C5.636 10.076 5.4008 10.6408 5.4 11.3C5.4 11.96 5.6352 12.5252 6.1056 12.9956C6.576 13.466 7.1408 13.7008 7.8 13.7ZM16.2 13.7C16.86 13.7 17.4252 13.4652 17.8956 12.9956C18.366 12.526 18.6008 11.9608 18.6 11.3C18.6 10.64 18.3652 10.0752 17.8956 9.6056C17.426 9.136 16.8608 8.9008 16.2 8.9C15.54 8.9 14.9752 9.1352 14.5056 9.6056C14.036 10.076 13.8008 10.6408 13.8 11.3C13.8 11.96 14.0352 12.5252 14.5056 12.9956C14.976 13.466 15.5408 13.7008 16.2 13.7ZM4.8 24.5V19.4C4.02 19.06 3.3348 18.6052 2.7444 18.0356C2.154 17.466 1.654 16.8208 1.2444 16.1C0.834804 15.38 0.524805 14.61 0.314405 13.79C0.104005 12.97 -0.000795454 12.14 4.54545e-06 11.3C4.54545e-06 8.14 1.12 5.55 3.36 3.53C5.6 1.51 8.48 0.5 12 0.5C15.52 0.5 18.4 1.51 20.64 3.53C22.88 5.55 24 8.14 24 11.3C24 12.14 23.8952 12.97 23.6856 13.79C23.476 14.61 23.166 15.38 22.7556 16.1C22.3452 16.82 21.8452 17.4652 21.2556 18.0356C20.666 18.606 19.9808 19.0608 19.2 19.4V24.5H15.6V22.1H13.2V24.5H10.8V22.1H8.4V24.5H4.8Z" fill="white"/>
</svg>
