<svg width="24" height="25" viewBox="0 0 24 25" fill="none" xmlns="http://www.w3.org/2000/svg">
<path d="M4.72373 0.202248C4.5606 0.0861011 4.36865 0.0170943 4.16891 0.002788C3.96917 -0.0115183 3.76934 0.0294282 3.59132 0.121141C3.41331 0.212854 3.26397 0.351795 3.15966 0.522741C3.05536 0.693688 3.00012 0.890045 3 1.0903V22.9097C3.00012 23.11 3.05536 23.3063 3.15966 23.4773C3.26397 23.6482 3.41331 23.7871 3.59132 23.8789C3.76934 23.9706 3.96917 24.0115 4.16891 23.9972C4.36865 23.9829 4.5606 23.9139 4.72373 23.7978L19.9973 12.888C20.1387 12.7871 20.254 12.6539 20.3335 12.4994C20.4131 12.345 20.4546 12.1737 20.4546 12C20.4546 11.8263 20.4131 11.655 20.3335 11.5006C20.254 11.3461 20.1387 11.2129 19.9973 11.1119L4.72373 0.202248Z" fill="white"/>
</svg>
