<svg width="48" height="49" viewBox="0 0 48 49" fill="none" xmlns="http://www.w3.org/2000/svg">
<g clip-path="url(#clip0_323_493)">
<path d="M-1.40548e-07 5.1143L4.11429 1L48 1.00001L48 44.8857L43.8857 49L0 49L-1.40548e-07 5.1143Z" fill="white"/>
<path d="M19.58 14.6856C19.4305 14.5792 19.2545 14.5159 19.0714 14.5028C18.8884 14.4897 18.7052 14.5272 18.542 14.6113C18.3788 14.6953 18.242 14.8227 18.1463 14.9794C18.0507 15.1361 18.0001 15.3161 18 15.4996V35.4996C18.0001 35.6832 18.0507 35.8632 18.1463 36.0199C18.242 36.1766 18.3788 36.3039 18.542 36.388C18.7052 36.472 18.8884 36.5096 19.0714 36.4965C19.2545 36.4833 19.4305 36.4201 19.58 36.3136L33.58 26.3136C33.7096 26.2211 33.8153 26.099 33.8882 25.9574C33.9611 25.8158 33.9991 25.6589 33.9991 25.4996C33.9991 25.3404 33.9611 25.1834 33.8882 25.0418C33.8153 24.9003 33.7096 24.7781 33.58 24.6856L19.58 14.6856Z" fill="black"/>
</g>
<defs>
<clipPath id="clip0_323_493">
<rect width="48" height="48" fill="white" transform="translate(0 0.5)"/>
</clipPath>
</defs>
</svg>
