<svg width="48" height="48" viewBox="0 0 48 48" fill="none" xmlns="http://www.w3.org/2000/svg">
<g clip-path="url(#clip0_335_471)">
<path d="M-1.40548e-07 4.6143L4.11429 0.500003L48 0.500011L48 44.3857L43.8857 48.5L0 48.5L-1.40548e-07 4.6143Z" fill="white"/>
<path d="M30.5002 13.2419C32.461 14.374 34.0921 15.9985 35.2321 17.9547C36.372 19.911 36.9813 22.131 36.9996 24.395C37.0179 26.659 36.4445 28.8886 35.3363 30.863C34.2281 32.8373 32.6235 34.488 30.6813 35.6517C28.739 36.8153 26.5266 37.4515 24.2629 37.4973C21.9992 37.5432 19.7628 36.997 17.7751 35.9129C15.7874 34.8288 14.1173 33.2443 12.9301 31.3164C11.7429 29.3885 11.0798 27.184 11.0065 24.9211L11 24.4999L11.0065 24.0787C11.0793 21.8335 11.7326 19.6456 12.9028 17.7281C14.0729 15.8107 15.7199 14.2291 17.6832 13.1377C19.6466 12.0463 21.8592 11.4822 24.1055 11.5004C26.3517 11.5187 28.5549 12.1187 30.5002 13.2419ZM24.0002 16.6999C23.6817 16.6999 23.3744 16.8168 23.1365 17.0284C22.8985 17.24 22.7465 17.5315 22.7092 17.8478L22.7001 17.9999V24.4999L22.7118 24.6702C22.7415 24.8957 22.8298 25.1095 22.9679 25.2903L23.081 25.4203L26.9811 29.3203L27.1033 29.4269C27.3313 29.6037 27.6116 29.6997 27.9002 29.6997C28.1888 29.6997 28.4691 29.6037 28.6971 29.4269L28.8193 29.319L28.9272 29.1968C29.1041 28.9688 29.2001 28.6884 29.2001 28.3999C29.2001 28.1113 29.1041 27.8309 28.9272 27.603L28.8193 27.4808L25.3002 23.9604V17.9999L25.2911 17.8478C25.2538 17.5315 25.1018 17.24 24.8639 17.0284C24.6259 16.8168 24.3186 16.6999 24.0002 16.6999Z" fill="black"/>
</g>
<defs>
<clipPath id="clip0_335_471">
<rect width="48" height="48" fill="white"/>
</clipPath>
</defs>
</svg>
