<svg width="48" height="48" viewBox="0 0 48 48" fill="none" xmlns="http://www.w3.org/2000/svg">
<g clip-path="url(#clip0_388_543)">
<path d="M-1.40548e-07 4.1143L4.11429 2.68118e-06L48 1.1226e-05L48 43.8857L43.8857 48L0 48L-1.40548e-07 4.1143Z" fill="white"/>
<path d="M24.9286 32.7024L28.7337 33.5575L27.8786 37.3626L24.0735 36.5075L24.9286 32.7024ZM32.3111 11.7103C39.0341 13.5143 40.4502 21.0276 35.2623 25.258C33.9246 26.2898 32.0368 26.745 30.9603 27.6223C29.8739 28.484 29.5888 29.7524 29.3038 31.0208L25.4987 30.1657C25.9747 28.0475 26.3766 26.2591 27.5115 25.1817C28.6336 24.1015 30.5014 23.7351 31.7423 23.1345C35.4502 20.9832 35.5928 16.7915 31.4559 15.5154C30.4468 15.2886 29.3888 15.4719 28.5149 16.0252C27.6409 16.5784 27.0225 17.4561 26.7957 18.4653L22.9906 17.6102C23.4442 15.5918 24.681 13.8363 26.4289 12.7299C28.1768 11.6234 30.2927 11.2567 32.3111 11.7103Z" fill="black"/>
<path d="M15.8357 29.6124C15.8045 29.3618 15.7829 29.131 15.7754 28.9135C15.7592 28.4448 15.8133 28.1274 15.9225 27.8921L15.9225 27.8921L15.9254 27.8858C16.0383 27.6379 16.261 27.3741 16.6059 27.0502C16.6937 26.9678 16.8034 26.8698 16.9224 26.7637C17.1805 26.5334 17.482 26.2644 17.6956 26.0318L17.7209 26.0042L17.7442 25.9748C18.7137 24.7457 19.0588 23.2505 18.5433 21.994C18.001 20.6721 16.656 19.9634 15.0032 20.0924L14.9642 20.0955L14.9256 20.1015C14.0389 20.2411 13.244 20.7271 12.7157 21.4527C12.3889 21.9016 12.1806 22.4196 12.1024 22.9593L11.7071 23.0215C11.7798 22.3784 12.0176 21.7589 12.4052 21.2265C12.9895 20.424 13.8666 19.8847 14.8459 19.7252C16.5981 19.5296 17.8927 20.2449 18.5723 21.2787C19.2569 22.3199 19.3907 23.7945 18.5717 25.2697C18.3763 25.5943 18.0871 25.9042 17.7182 26.2875C17.6996 26.3069 17.6806 26.3266 17.6612 26.3466C17.3391 26.6806 16.9232 27.1118 16.6553 27.5883C16.2716 28.2569 16.2056 28.9479 16.2381 29.5491L15.8357 29.6124ZM16.3837 33.1598L16.7632 33.1001L16.8229 33.4796L16.4434 33.5393L16.3837 33.1598Z" fill="black" stroke="black" stroke-width="2"/>
</g>
<defs>
<clipPath id="clip0_388_543">
<rect width="48" height="48" fill="white"/>
</clipPath>
</defs>
</svg>
