<svg width="48" height="48" viewBox="0 0 48 48" fill="none" xmlns="http://www.w3.org/2000/svg">
<g clip-path="url(#clip0_335_480)">
<path d="M-1.40548e-07 4.6143L4.11429 0.500003L48 0.500011L48 44.3857L43.8857 48.5L0 48.5L-1.40548e-07 4.6143Z" fill="white"/>
<path d="M22.05 29.375H25.95L24 25.475L22.05 29.375ZM19.45 25.8C20.165 25.8 20.7773 25.5456 21.2869 25.0369C21.7965 24.5282 22.0509 23.9159 22.05 23.2C22.05 22.485 21.7956 21.8731 21.2869 21.3644C20.7782 20.8557 20.1659 20.6009 19.45 20.6C18.735 20.6 18.1231 20.8548 17.6144 21.3644C17.1057 21.874 16.8509 22.4859 16.85 23.2C16.85 23.915 17.1048 24.5273 17.6144 25.0369C18.124 25.5465 18.7359 25.8009 19.45 25.8ZM28.55 25.8C29.265 25.8 29.8773 25.5456 30.3869 25.0369C30.8965 24.5282 31.1509 23.9159 31.15 23.2C31.15 22.485 30.8956 21.8731 30.3869 21.3644C29.8782 20.8557 29.2659 20.6009 28.55 20.6C27.835 20.6 27.2231 20.8548 26.7144 21.3644C26.2057 21.874 25.9509 22.4859 25.95 23.2C25.95 23.915 26.2048 24.5273 26.7144 25.0369C27.224 25.5465 27.8359 25.8009 28.55 25.8ZM16.2 37.5V31.975C15.355 31.6067 14.6127 31.114 13.9731 30.4969C13.3335 29.8798 12.7918 29.1809 12.3481 28.4C11.9044 27.62 11.5685 26.7858 11.3406 25.8975C11.1127 25.0092 10.9991 24.11 11 23.2C11 19.7767 12.2133 16.9708 14.64 14.7825C17.0667 12.5942 20.1867 11.5 24 11.5C27.8133 11.5 30.9333 12.5942 33.36 14.7825C35.7867 16.9708 37 19.7767 37 23.2C37 24.11 36.8865 25.0092 36.6594 25.8975C36.4323 26.7858 36.0965 27.62 35.6519 28.4C35.2073 29.18 34.6656 29.879 34.0269 30.4969C33.3882 31.1148 32.6459 31.6075 31.8 31.975V37.5H27.9V34.9H25.3V37.5H22.7V34.9H20.1V37.5H16.2Z" fill="black"/>
</g>
<defs>
<clipPath id="clip0_335_480">
<rect width="48" height="48" fill="white"/>
</clipPath>
</defs>
</svg>
