<?xml version="1.0" encoding="UTF-8"?>
<svg id="Layer_1" data-name="Layer 1" xmlns="http://www.w3.org/2000/svg" viewBox="0 0 200 50">
  <defs>
    <style>
      .cls-1 {
        fill: #fff;
        stroke-width: 0px;
      }
    </style>
  </defs>
  <g>
    <polygon class="cls-1" points="61.62 39.97 6.94 39.97 0 34.63 58.41 34.63 61.62 39.97"/>
    <polygon class="cls-1" points="67.6 45.52 19.36 45.52 12.15 41.51 65.2 41.51 67.6 45.52"/>
    <polygon class="cls-1" points="72.8 49.73 30.84 49.73 24.43 47.06 71.21 47.06 72.8 49.73"/>
  </g>
  <g>
    <polygon class="cls-1" points="138.38 39.97 193.06 39.97 200 34.63 141.59 34.63 138.38 39.97"/>
    <polygon class="cls-1" points="132.4 45.52 180.64 45.52 187.85 41.51 134.8 41.51 132.4 45.52"/>
    <polygon class="cls-1" points="127.2 49.73 169.16 49.73 175.57 47.06 128.79 47.06 127.2 49.73"/>
  </g>
  <g>
    <path class="cls-1" d="M85.94,45.15h-1.14c-.12,0-.17.05-.17.17v2.06c0,.12-.05.17-.17.17h-1.66c-.12,0-.17-.05-.17-.17v-2.06c0-.12-.05-.17-.17-.17h-4.12c-.12,0-.17-.05-.17-.17v-1.48l4.56-6.87s.09-.07.14-.07h1.61c.12,0,.17.05.17.17v6.41c0,.12.05.17.17.17h1.14c.12,0,.17.05.17.17v1.48c0,.12-.05.17-.17.17ZM82.62,40.43c0-.12-.07-.21-.16-.21-.05,0-.1.04-.16.1l-1.8,2.71c-.03.05-.05.1-.05.14,0,.09.07.14.19.14h1.8c.12,0,.17-.05.17-.17v-2.71Z"/>
    <path class="cls-1" d="M90.54,47.73h-.51c-1.99,0-3.25-1.28-3.25-3.09v-5.17c0-1.82,1.26-3.09,3.25-3.09h.51c1.97,0,3.25,1.28,3.25,3.09v5.17c0,1.82-1.28,3.09-3.25,3.09ZM91.78,39.47c0-.7-.54-1.26-1.24-1.26h-.51c-.68,0-1.26.58-1.26,1.26v5.17c0,.68.58,1.26,1.26,1.26h.51c.7,0,1.24-.56,1.24-1.26v-5.17Z"/>
    <path class="cls-1" d="M95.97,49.41c-.33.24-.63.4-.72.4-.05,0-.1-.03-.14-.1l-.4-.79c-.05-.1-.1-.17-.1-.24s.04-.1.1-.14c.47-.26.68-.79.68-1.08,0-.1-.07-.16-.17-.16h-.19c-.12,0-.17-.05-.17-.17v-1.69c0-.12.05-.17.17-.17h1.99c.12,0,.17.05.17.17v1.28c0,1.4-.49,2.18-1.22,2.71Z"/>
    <path class="cls-1" d="M102.02,47.73h-.51c-1.99,0-3.25-1.28-3.25-3.09v-5.17c0-1.82,1.26-3.09,3.25-3.09h.51c1.97,0,3.25,1.28,3.25,3.09v5.17c0,1.82-1.28,3.09-3.25,3.09ZM103.26,39.47c0-.7-.54-1.26-1.24-1.26h-.51c-.68,0-1.26.58-1.26,1.26v5.17c0,.68.58,1.26,1.26,1.26h.51c.7,0,1.24-.56,1.24-1.26v-5.17Z"/>
    <path class="cls-1" d="M109.98,47.73h-.51c-1.99,0-3.25-1.28-3.25-3.09v-5.17c0-1.82,1.26-3.09,3.25-3.09h.51c1.97,0,3.25,1.28,3.25,3.09v5.17c0,1.82-1.28,3.09-3.25,3.09ZM111.22,39.47c0-.7-.54-1.26-1.24-1.26h-.51c-.68,0-1.26.58-1.26,1.26v5.17c0,.68.58,1.26,1.26,1.26h.51c.7,0,1.24-.56,1.24-1.26v-5.17Z"/>
    <path class="cls-1" d="M117.95,47.73h-.51c-1.99,0-3.25-1.28-3.25-3.09v-5.17c0-1.82,1.26-3.09,3.25-3.09h.51c1.97,0,3.25,1.28,3.25,3.09v5.17c0,1.82-1.28,3.09-3.25,3.09ZM119.19,39.47c0-.7-.54-1.26-1.24-1.26h-.51c-.68,0-1.26.58-1.26,1.26v5.17c0,.68.58,1.26,1.26,1.26h.51c.7,0,1.24-.56,1.24-1.26v-5.17Z"/>
  </g>
  <g>
    <path class="cls-1" d="M23.65,30.95h-4.52c-.34,0-.48-.14-.48-.48v-5.05c0-3.8.43-10.48.53-11.63l-.19-.05c-.14.38-.67,2.6-1.25,3.85l-3.99,8.94c-.1.19-.24.29-.43.29h-2.45c-.19,0-.34-.1-.43-.29l-3.99-8.94c-.58-1.25-1.11-3.46-1.25-3.85l-.19.05c.1,1.15.53,7.83.53,11.63v5.05c0,.34-.14.48-.48.48H.48c-.34,0-.48-.14-.48-.48V1.15c0-.34.14-.48.48-.48h4.04c.19,0,.34.1.43.29l6.39,15.28c.14.34.53,1.78.62,2.16h.14c.1-.38.53-1.83.67-2.16L19.18.96c.1-.19.24-.29.43-.29h4.04c.34,0,.48.14.48.48v29.32c0,.34-.14.48-.48.48Z"/>
    <path class="cls-1" d="M34.13,30.95h-4.57c-.34,0-.48-.14-.48-.48V1.15c0-.34.14-.48.48-.48h4.57c.34,0,.48.14.48.48v29.32c0,.34-.14.48-.48.48Z"/>
    <path class="cls-1" d="M59.02,30.95h-3.99c-.19,0-.34-.1-.43-.24l-8.6-15.67c-.19-.34-.87-2.07-1.01-2.45l-.19.05c.1,1.15.29,8.07.29,11.87v5.96c0,.34-.14.48-.48.48h-4.57c-.34,0-.48-.14-.48-.48V1.15c0-.34.14-.48.48-.48h4.04c.19,0,.34.1.43.24l8.6,15.76c.19.34.87,2.07,1.01,2.45l.19-.05c-.1-1.15-.29-8.07-.29-11.87V1.15c0-.34.14-.48.48-.48h4.52c.34,0,.48.14.48.48v29.32c0,.34-.14.48-.48.48Z"/>
    <path class="cls-1" d="M76.33,30.95h-10.81c-.34,0-.48-.14-.48-.48V1.15c0-.34.14-.48.48-.48h10.81c5.48,0,8.94,3.51,8.94,8.94v12.4c0,5.48-3.46,8.94-8.94,8.94ZM79.79,9.18c0-1.87-1.59-3.46-3.46-3.46h-5.29c-.34,0-.48.14-.48.48v19.23c0,.34.14.48.48.48h5.29c1.87,0,3.46-1.49,3.46-3.46v-13.27Z"/>
    <path class="cls-1" d="M107.14,5.72h-11.44c-.34,0-.48.14-.48.48v6.39c0,.34.14.48.48.48h9.37c.34,0,.48.14.48.48v4.09c0,.34-.14.48-.48.48h-9.37c-.34,0-.48.14-.48.48v11.87c0,.34-.14.48-.48.48h-4.57c-.34,0-.48-.14-.48-.48V1.15c0-.34.14-.48.48-.48h16.97c.34,0,.48.14.48.48v4.09c0,.34-.14.48-.48.48Z"/>
    <path class="cls-1" d="M120.5,31.43h-2.36c-5.48,0-8.94-3.51-8.94-8.51v-14.23c0-5,3.46-8.51,8.94-8.51h2.36c5.43,0,8.94,3.51,8.94,8.51v14.23c0,5-3.51,8.51-8.94,8.51ZM123.91,8.7c0-1.92-1.49-3.46-3.41-3.46h-2.36c-1.87,0-3.46,1.59-3.46,3.46v14.23c0,1.87,1.59,3.46,3.46,3.46h2.36c1.92,0,3.41-1.54,3.41-3.46v-14.23Z"/>
    <path class="cls-1" d="M154.19,30.95h-4.95c-.19,0-.38-.14-.43-.34l-4.23-12.21c-.05-.19-.19-.29-.38-.29h-4.28c-.34,0-.48.14-.48.48v11.87c0,.34-.14.48-.48.48h-4.57c-.34,0-.48-.14-.48-.48V1.15c0-.34.14-.48.48-.48h10.81c5.48,0,8.94,3.51,8.94,8.94v.48c0,2.45-2.07,5.29-3.89,6.54-.14.1-.19.19-.19.38,0,.14.1.38.24.77l4.13,12.02c.1.34.24.63.24.77,0,.24-.14.38-.48.38ZM148.67,9.18c0-1.87-1.59-3.46-3.46-3.46h-5.29c-.34,0-.48.14-.48.48v6.39c0,.34.14.48.48.48h5.29c1.87,0,3.46-1.59,3.46-3.46v-.43Z"/>
    <path class="cls-1" d="M177.94,6.2l-3.84,1.97c-.19.1-.38.24-.58.24-.14,0-.29-.1-.38-.34-.87-2.07-2.11-2.84-3.41-2.84h-3.17c-1.87,0-3.46,1.59-3.46,3.46v14.23c0,1.87,1.59,3.46,3.46,3.46h2.36c1.92,0,3.41-1.54,3.41-3.46v-2.26c0-.34-.14-.48-.48-.48h-4.52c-.34,0-.48-.14-.48-.48v-4.09c0-.34.14-.48.48-.48h10.04c.34,0,.48.14.48.48v7.31c0,5-3.51,8.51-8.94,8.51h-2.36c-5.48,0-8.94-3.51-8.94-8.51v-14.23c0-5,3.46-8.51,8.94-8.51h3.17c3.99,0,6.15,1.63,7.59,3.89.43.72.91,1.49.91,1.78,0,.14-.1.24-.29.34Z"/>
    <path class="cls-1" d="M199.52,30.95h-16.97c-.34,0-.48-.14-.48-.48V1.15c0-.34.14-.48.48-.48h16.97c.34,0,.48.14.48.48v4.09c0,.34-.14.48-.48.48h-11.44c-.34,0-.48.14-.48.48v6.39c0,.34.14.48.48.48h9.37c.34,0,.48.14.48.48v4.09c0,.34-.14.48-.48.48h-9.37c-.34,0-.48.14-.48.48v6.82c0,.34.14.48.48.48h11.44c.34,0,.48.14.48.48v4.09c0,.34-.14.48-.48.48Z"/>
  </g>
</svg>