<?xml version="1.0" encoding="UTF-8"?>
<svg id="Layer_1" data-name="Layer 1" xmlns="http://www.w3.org/2000/svg" viewBox="0 0 512 512">
  <defs>
    <style>
      .cls-1 {
        fill: #333;
      }

      .cls-1, .cls-2 {
        stroke-width: 0px;
      }

      .cls-2 {
        fill: #fff;
      }
    </style>
  </defs>
  <rect class="cls-1" width="512" height="512"/>
  <g>
    <g>
      <polygon class="cls-2" points="179.24 285.94 69.89 285.94 56 275.26 172.83 275.26 179.24 285.94"/>
      <polygon class="cls-2" points="191.19 297.04 94.72 297.04 80.3 289.03 186.4 289.03 191.19 297.04"/>
      <polygon class="cls-2" points="201.61 305.47 117.68 305.47 104.87 300.13 198.41 300.13 201.61 305.47"/>
    </g>
    <g>
      <polygon class="cls-2" points="332.76 285.94 442.11 285.94 456 275.26 339.17 275.26 332.76 285.94"/>
      <polygon class="cls-2" points="320.81 297.04 417.28 297.04 431.7 289.03 325.6 289.03 320.81 297.04"/>
      <polygon class="cls-2" points="310.39 305.47 394.32 305.47 407.13 300.13 313.59 300.13 310.39 305.47"/>
    </g>
    <g>
      <path class="cls-2" d="M227.89,296.29h-2.27c-.24,0-.35.11-.35.35v4.12c0,.24-.1.35-.35.35h-3.32c-.24,0-.35-.1-.35-.35v-4.12c0-.24-.1-.35-.35-.35h-8.25c-.24,0-.35-.1-.35-.35v-2.97l9.12-13.73c.07-.07.17-.14.28-.14h3.21c.24,0,.35.1.35.35v12.82c0,.24.11.35.35.35h2.27c.24,0,.35.1.35.35v2.97c0,.24-.1.35-.35.35ZM221.25,286.86c0-.24-.14-.42-.31-.42-.11,0-.21.07-.31.21l-3.6,5.42c-.07.1-.1.21-.1.28,0,.17.14.28.38.28h3.6c.24,0,.35-.1.35-.35v-5.42Z"/>
      <path class="cls-2" d="M237.08,301.47h-1.01c-3.98,0-6.5-2.55-6.5-6.18v-10.34c0-3.63,2.52-6.18,6.5-6.18h1.01c3.95,0,6.5,2.55,6.5,6.18v10.34c0,3.63-2.55,6.18-6.5,6.18ZM239.56,284.94c0-1.4-1.08-2.52-2.48-2.52h-1.01c-1.36,0-2.52,1.15-2.52,2.52v10.34c0,1.36,1.15,2.52,2.52,2.52h1.01c1.4,0,2.48-1.12,2.48-2.52v-10.34Z"/>
      <path class="cls-2" d="M247.94,304.82c-.66.49-1.26.8-1.43.8-.1,0-.21-.07-.28-.21l-.8-1.57c-.1-.21-.21-.35-.21-.49s.07-.21.21-.28c.94-.52,1.36-1.57,1.36-2.17,0-.21-.14-.31-.35-.31h-.38c-.24,0-.35-.11-.35-.35v-3.39c0-.24.1-.35.35-.35h3.98c.24,0,.35.11.35.35v2.55c0,2.8-.98,4.37-2.45,5.42Z"/>
      <path class="cls-2" d="M260.03,301.47h-1.01c-3.98,0-6.5-2.55-6.5-6.18v-10.34c0-3.63,2.52-6.18,6.5-6.18h1.01c3.95,0,6.5,2.55,6.5,6.18v10.34c0,3.63-2.55,6.18-6.5,6.18ZM262.51,284.94c0-1.4-1.08-2.52-2.48-2.52h-1.01c-1.36,0-2.52,1.15-2.52,2.52v10.34c0,1.36,1.15,2.52,2.52,2.52h1.01c1.4,0,2.48-1.12,2.48-2.52v-10.34Z"/>
      <path class="cls-2" d="M275.96,301.47h-1.01c-3.98,0-6.5-2.55-6.5-6.18v-10.34c0-3.63,2.52-6.18,6.5-6.18h1.01c3.95,0,6.5,2.55,6.5,6.18v10.34c0,3.63-2.55,6.18-6.5,6.18ZM278.44,284.94c0-1.4-1.08-2.52-2.48-2.52h-1.01c-1.36,0-2.52,1.15-2.52,2.52v10.34c0,1.36,1.15,2.52,2.52,2.52h1.01c1.4,0,2.48-1.12,2.48-2.52v-10.34Z"/>
      <path class="cls-2" d="M291.9,301.47h-1.01c-3.98,0-6.5-2.55-6.5-6.18v-10.34c0-3.63,2.52-6.18,6.5-6.18h1.01c3.95,0,6.5,2.55,6.5,6.18v10.34c0,3.63-2.55,6.18-6.5,6.18ZM294.38,284.94c0-1.4-1.08-2.52-2.48-2.52h-1.01c-1.36,0-2.52,1.15-2.52,2.52v10.34c0,1.36,1.15,2.52,2.52,2.52h1.01c1.4,0,2.48-1.12,2.48-2.52v-10.34Z"/>
    </g>
    <g>
      <path class="cls-2" d="M103.29,267.9h-9.04c-.67,0-.96-.29-.96-.96v-10.09c0-7.59.87-20.96,1.06-23.26l-.38-.1c-.29.77-1.35,5.19-2.5,7.69l-7.98,17.88c-.19.38-.48.58-.87.58h-4.9c-.38,0-.67-.19-.87-.58l-7.98-17.88c-1.15-2.5-2.21-6.92-2.5-7.69l-.38.1c.19,2.31,1.06,15.67,1.06,23.26v10.09c0,.67-.29.96-.96.96h-9.13c-.67,0-.96-.29-.96-.96v-58.64c0-.67.29-.96.96-.96h8.07c.38,0,.67.19.87.58l12.79,30.57c.29.67,1.06,3.56,1.25,4.33h.29c.19-.77,1.06-3.65,1.35-4.33l12.79-30.57c.19-.38.48-.58.86-.58h8.08c.67,0,.96.29.96.96v58.64c0,.67-.29.96-.96.96Z"/>
      <path class="cls-2" d="M124.25,267.9h-9.13c-.67,0-.96-.29-.96-.96v-58.64c0-.67.29-.96.96-.96h9.13c.67,0,.96.29.96.96v58.64c0,.67-.29.96-.96.96Z"/>
      <path class="cls-2" d="M174.05,267.9h-7.98c-.38,0-.67-.19-.87-.48l-17.21-31.34c-.38-.67-1.73-4.13-2.02-4.9l-.38.1c.19,2.31.58,16.15.58,23.74v11.92c0,.67-.29.96-.96.96h-9.13c-.67,0-.96-.29-.96-.96v-58.64c0-.67.29-.96.96-.96h8.07c.38,0,.67.19.87.48l17.21,31.53c.38.67,1.73,4.13,2.02,4.9l.38-.1c-.19-2.31-.58-16.15-.58-23.74v-12.11c0-.67.29-.96.96-.96h9.04c.67,0,.96.29.96.96v58.64c0,.67-.29.96-.96.96Z"/>
      <path class="cls-2" d="M208.66,267.9h-21.63c-.67,0-.96-.29-.96-.96v-58.64c0-.67.29-.96.96-.96h21.63c10.96,0,17.88,7.02,17.88,17.88v24.8c0,10.96-6.92,17.88-17.88,17.88ZM215.58,224.35c0-3.75-3.17-6.92-6.92-6.92h-10.57c-.67,0-.96.29-.96.96v38.45c0,.67.29.96.96.96h10.57c3.75,0,6.92-2.98,6.92-6.92v-26.53Z"/>
      <path class="cls-2" d="M270.27,217.43h-22.88c-.67,0-.96.29-.96.96v12.79c0,.67.29.96.96.96h18.74c.67,0,.96.29.96.96v8.17c0,.67-.29.96-.96.96h-18.74c-.67,0-.96.29-.96.96v23.74c0,.67-.29.96-.96.96h-9.13c-.67,0-.96-.29-.96-.96v-58.64c0-.67.29-.96.96-.96h33.93c.67,0,.96.29.96.96v8.17c0,.67-.29.96-.96.96Z"/>
      <path class="cls-2" d="M297,268.86h-4.71c-10.96,0-17.88-7.02-17.88-17.01v-28.45c0-10,6.92-17.01,17.88-17.01h4.71c10.86,0,17.88,7.02,17.88,17.01v28.45c0,10-7.02,17.01-17.88,17.01ZM303.82,223.39c0-3.84-2.98-6.92-6.82-6.92h-4.71c-3.75,0-6.92,3.17-6.92,6.92v28.45c0,3.75,3.17,6.92,6.92,6.92h4.71c3.84,0,6.82-3.08,6.82-6.92v-28.45Z"/>
      <path class="cls-2" d="M364.39,267.9h-9.9c-.38,0-.77-.29-.86-.67l-8.46-24.42c-.1-.38-.38-.58-.77-.58h-8.56c-.67,0-.96.29-.96.96v23.74c0,.67-.29.96-.96.96h-9.13c-.67,0-.96-.29-.96-.96v-58.64c0-.67.29-.96.96-.96h21.63c10.96,0,17.88,7.02,17.88,17.88v.96c0,4.9-4.13,10.57-7.79,13.07-.29.19-.38.38-.38.77,0,.29.19.77.48,1.54l8.27,24.03c.19.67.48,1.25.48,1.54,0,.48-.29.77-.96.77ZM353.33,224.35c0-3.75-3.17-6.92-6.92-6.92h-10.57c-.67,0-.96.29-.96.96v12.79c0,.67.29.96.96.96h10.57c3.75,0,6.92-3.17,6.92-6.92v-.87Z"/>
      <path class="cls-2" d="M411.88,218.39l-7.69,3.94c-.38.19-.77.48-1.15.48-.29,0-.58-.19-.77-.67-1.73-4.13-4.23-5.67-6.82-5.67h-6.35c-3.75,0-6.92,3.17-6.92,6.92v28.45c0,3.75,3.17,6.92,6.92,6.92h4.71c3.84,0,6.82-3.08,6.82-6.92v-4.52c0-.67-.29-.96-.96-.96h-9.04c-.67,0-.96-.29-.96-.96v-8.17c0-.67.29-.96.96-.96h20.09c.67,0,.96.29.96.96v14.61c0,10-7.02,17.01-17.88,17.01h-4.71c-10.96,0-17.88-7.02-17.88-17.01v-28.45c0-10,6.92-17.01,17.88-17.01h6.35c7.98,0,12.3,3.27,15.19,7.79.87,1.44,1.83,2.98,1.83,3.56,0,.29-.19.48-.58.67Z"/>
      <path class="cls-2" d="M455.04,267.9h-33.93c-.67,0-.96-.29-.96-.96v-58.64c0-.67.29-.96.96-.96h33.93c.67,0,.96.29.96.96v8.17c0,.67-.29.96-.96.96h-22.88c-.67,0-.96.29-.96.96v12.79c0,.67.29.96.96.96h18.74c.67,0,.96.29.96.96v8.17c0,.67-.29.96-.96.96h-18.74c-.67,0-.96.29-.96.96v13.65c0,.67.29.96.96.96h22.88c.67,0,.96.29.96.96v8.17c0,.67-.29.96-.96.96Z"/>
    </g>
  </g>
</svg>